<mxfile host="Electron" agent="Mozilla/5.0 (Macintosh; Intel Mac OS X 10_15_7) AppleWebKit/537.36 (KHTML, like Gecko) draw.io/26.0.9 Chrome/128.0.6613.186 Electron/32.2.5 Safari/537.36" version="26.0.9">
  <diagram name="Page-1" id="iA5Ue-Kc0a7LGwQwVt-h">
    <mxGraphModel dx="1912" dy="1139" grid="1" gridSize="10" guides="1" tooltips="1" connect="1" arrows="1" fold="1" page="1" pageScale="1" pageWidth="1600" pageHeight="900" math="0" shadow="0" adaptiveColors="none">
      <root>
        <mxCell id="0" />
        <mxCell id="1" parent="0" />
        <mxCell id="8t1iUa-SFsCj8tm6ZK9O-1" value="" style="shape=image;verticalLabelPosition=bottom;labelBackgroundColor=default;verticalAlign=top;aspect=fixed;imageAspect=0;image=https://developer.ebay.com/api-docs/res/resources/images/ebay-rest/client_credentials_650x449.png;" vertex="1" parent="1">
          <mxGeometry x="120" y="40" width="1027.84" height="710" as="geometry" />
        </mxCell>
        <mxCell id="8t1iUa-SFsCj8tm6ZK9O-2" value="&lt;h3&gt;&lt;b&gt;Resource Server&lt;/b&gt;&lt;/h3&gt;" style="rounded=0;whiteSpace=wrap;html=1;" vertex="1" parent="1">
          <mxGeometry x="900" y="80" width="160" height="90" as="geometry" />
        </mxCell>
        <mxCell id="8t1iUa-SFsCj8tm6ZK9O-3" value="&lt;h3&gt;&lt;b&gt;Authorization Server&lt;/b&gt;&lt;/h3&gt;" style="rounded=0;whiteSpace=wrap;html=1;" vertex="1" parent="1">
          <mxGeometry x="530" y="80" width="240" height="90" as="geometry" />
        </mxCell>
        <mxCell id="8t1iUa-SFsCj8tm6ZK9O-4" value="&lt;h3&gt;&lt;b&gt;Client (also a server to external client)&lt;/b&gt;&lt;/h3&gt;" style="rounded=0;whiteSpace=wrap;html=1;" vertex="1" parent="1">
          <mxGeometry x="210" y="80" width="210" height="90" as="geometry" />
        </mxCell>
      </root>
    </mxGraphModel>
  </diagram>
</mxfile>
